<svg xmlns="http://www.w3.org/2000/svg" viewBox="0 0 64 64" role="img" aria-labelledby="title desc">
  <title id="title">Foto nazorati</title>
  <desc id="desc">Foto ramkasi, tasdiq belgisi va himoya qalqoni</desc>
  <g fill="none" stroke="#07514d" stroke-linecap="round" stroke-linejoin="round">
    <path stroke-width="5" d="M8.5 40.5V13A5.5 5.5 0 0 1 14 7.5h30A5.5 5.5 0 0 1 49.5 13v23"/>
    <path stroke-width="5" d="m10 37 10.5-10 7.5 7 9-10 10.5 10"/>
    <circle cx="19" cy="18" r="3.5" fill="#17a89c" stroke="none"/>
    <path fill="#07514d" stroke="white" stroke-width="2.5" d="M34 35.5c6.4-.4 11.3-2.1 15-5.1 3.7 3 8.6 4.7 15 5.1v9.4c0 8.8-5.6 14.2-15 17.1-9.4-2.9-15-8.3-15-17.1z"/>
    <path stroke="#fff" stroke-width="4.5" d="m41.5 46.7 5 5 10-11"/>
  </g>
</svg>
